<svg width="26" height="26" viewBox="0 0 26 26" fill="none" xmlns="http://www.w3.org/2000/svg">
<path d="M17.3706 2.41284H9.51165C5.58216 2.41284 4.60498 3.46279 4.60498 7.65216V19.3575C4.60498 22.1227 6.12272 22.7776 7.96272 20.8024L7.97312 20.7921C8.82555 19.8876 10.125 19.9604 10.8631 20.948L11.913 22.3514C12.755 23.4637 14.1168 23.4637 14.9589 22.3514L16.0088 20.948C16.7573 19.95 18.0567 19.8772 18.9092 20.7921C20.7596 22.7672 22.2669 22.1123 22.2669 19.3471V7.65216C22.2773 3.46279 21.3001 2.41284 17.3706 2.41284ZM17.2459 15.4384C17.09 15.5943 16.8924 15.6671 16.6949 15.6671C16.4974 15.6671 16.2999 15.5943 16.144 15.4384L15.3747 14.6691C14.7718 15.0641 14.0441 15.3032 13.2644 15.3032C11.1437 15.3032 9.41809 13.5776 9.41809 11.4569C9.41809 9.33623 11.1333 7.61058 13.2644 7.61058C15.3955 7.61058 17.1107 9.33623 17.1107 11.4569C17.1107 12.2366 16.8716 12.9643 16.4766 13.5672L17.2459 14.3365C17.5474 14.6379 17.5474 15.1369 17.2459 15.4384Z" fill="black"/>
</svg>
