<svg width="47" height="47" viewBox="0 0 47 47" fill="none" xmlns="http://www.w3.org/2000/svg">
<path d="M31.7053 3.91675H15.2944C8.16609 3.91675 3.9165 8.16633 3.9165 15.2947V31.6859C3.9165 38.8338 8.16609 43.0834 15.2944 43.0834H31.6857C38.814 43.0834 43.0636 38.8338 43.0636 31.7055V15.2947C43.0832 8.16633 38.8336 3.91675 31.7053 3.91675ZM16.5869 21.5026C17.1548 20.9347 18.0948 20.9347 18.6628 21.5026L22.0311 24.8709V12.7488C22.0311 11.9459 22.6969 11.2801 23.4998 11.2801C24.3028 11.2801 24.9686 11.9459 24.9686 12.7488V24.8709L28.3369 21.5026C28.9048 20.9347 29.8448 20.9347 30.4128 21.5026C30.9807 22.0705 30.9807 23.0105 30.4128 23.5784L24.5378 29.4534C24.4007 29.5905 24.244 29.6884 24.0678 29.7667C23.8915 29.8451 23.6957 29.8842 23.4998 29.8842C23.304 29.8842 23.1278 29.8451 22.9319 29.7667C22.7557 29.6884 22.599 29.5905 22.4619 29.4534L16.5869 23.5784C16.019 23.0105 16.019 22.0901 16.5869 21.5026ZM35.7198 33.7226C31.7836 35.0347 27.6515 35.7005 23.4998 35.7005C19.3482 35.7005 15.2161 35.0347 11.2798 33.7226C10.5161 33.468 10.1048 32.6259 10.3594 31.8622C10.614 31.0984 11.4365 30.6676 12.2198 30.9417C19.5048 33.3701 27.5144 33.3701 34.7994 30.9417C35.5632 30.6872 36.4053 31.0984 36.6598 31.8622C36.8948 32.6455 36.4836 33.468 35.7198 33.7226Z" fill="white" fill-opacity="0.5"/>
</svg>
