<svg width="21" height="21" viewBox="0 0 21 21" fill="none" xmlns="http://www.w3.org/2000/svg">
<path d="M14.1225 2.59001L6.22123 5.21501C0.909981 6.99126 0.909981 9.88751 6.22123 11.655L8.56623 12.4338L9.34498 14.7788C11.1125 20.09 14.0175 20.09 15.785 14.7788L18.4187 6.88626C19.5912 3.34251 17.6662 1.40876 14.1225 2.59001ZM14.4025 7.29751L11.0775 10.64C10.9462 10.7713 10.78 10.8325 10.6137 10.8325C10.4475 10.8325 10.2812 10.7713 10.15 10.64C9.89623 10.3863 9.89623 9.96626 10.15 9.71251L13.475 6.37001C13.7287 6.11626 14.1487 6.11626 14.4025 6.37001C14.6562 6.62376 14.6562 7.04376 14.4025 7.29751Z" fill="white"/>
</svg>
