<svg width="21" height="21" viewBox="0 0 21 21" fill="none" xmlns="http://www.w3.org/2000/svg">
<path fill-rule="evenodd" clip-rule="evenodd" d="M0.00770964 9.6074C0 9.80363 0 10.0358 0 10.5C0 10.9642 0 11.1964 0.00770964 11.3926C0.0703466 12.9868 0.504555 14.4844 1.22629 15.8012C2.02554 14.9628 3.19803 13.9984 4.67037 12.9276C5.31297 12.4362 6.03117 11.9448 6.71157 11.4912C6.48477 10.773 6.37137 9.79017 6.37137 8.88297C6.37137 8.05137 6.44697 7.25757 6.56037 6.76617C6.92246 5.39024 8.15166 4.88142 9.0519 4.50877C9.09146 4.4924 9.13039 4.47628 9.16857 4.46037C9.50877 4.34697 10.1514 4.15797 10.3026 4.34697C10.227 4.42257 10.1892 4.46037 10.0002 4.76277C9.54657 5.66997 9.24417 7.25757 9.24417 8.50497C9.24417 8.95857 9.31977 9.41217 9.39537 9.71457C12.176 7.83187 16.1107 5.54966 19.0567 4.07544C17.3095 1.70271 14.5394 0.131348 11.3926 0.00770964C11.1964 0 10.9642 0 10.5 0C10.0358 0 9.80363 0 9.6074 0.00770964C4.39286 0.21259 0.21259 4.39286 0.00770964 9.6074ZM19.3533 4.50097C15.748 6.83989 12.3781 9.5186 9.91417 11.4771L9.84897 11.529C10.4243 14.2677 12.2608 17.8751 14.7355 20.2782C18.2935 18.8452 20.8337 15.4287 20.9923 11.3926C21 11.1964 21 10.9642 21 10.5C21 10.0358 21 9.80363 20.9923 9.6074C20.9183 7.72418 20.3258 5.97585 19.3533 4.50097ZM13.0858 20.7814C10.724 18.9646 8.69972 16.3145 7.46757 13.419C5.38857 15.0066 3.98997 16.2162 3.08277 17.4258C2.95138 17.5884 2.84071 17.7428 2.75006 17.8876C4.48703 19.7155 6.9087 20.8863 9.6074 20.9923C9.80363 21 10.0358 21 10.5 21C10.9642 21 11.1964 21 11.3926 20.9923C11.9711 20.9696 12.5368 20.8979 13.0858 20.7814Z" fill="#363535"/>
</svg>
